<svg width="224" height="270" viewBox="0 0 224 270" xmlns="http://www.w3.org/2000/svg" preserveAspectRatio="xMinYMin meet"><g><path d="M111.75 255.72c23.045 0 46.09.012 69.136-.004 14.445-.01 24.246-7.813 27.408-21.912 1.835-8.179 1.333-16.313-1.344-24.229-6.623-19.588-13.364-39.136-20.069-58.697-10.72-31.275-21.451-62.546-32.175-93.82-2.564-7.479-5.156-14.948-7.66-22.447-1.456-4.359-.049-7.006 4.27-8.392 3.948-1.267 5.655-5.698 3.456-9.114-1.346-2.09-3.352-2.856-5.819-2.853-24.763.029-49.525.018-74.288.019-.443 0-.889-.015-1.328.034-2.132.239-3.753 1.295-4.761 3.184-1.934 3.625-.042 7.655 4.103 8.823 3.223.908 4.63 2.963 4.237 6.304-.102.869-.324 1.739-.608 2.569-7.084 20.716-14.182 41.426-21.28 62.137-12.421 36.245-24.8 72.505-37.298 108.724-2.79 8.087-4.233 16.254-3.017 24.777.978 6.856 3.396 13.079 8.547 17.925 5.468 5.145 12.196 6.96 19.519 6.965 22.99.015 45.98.006 68.97.005zm-42.38-222.925c-3.917-1.323-6.502-3.919-7.942-7.613-3.41-8.746 3.033-18.174 12.402-18.177 25.315-.007 50.631-.005 75.946-.001 5.86.001 10.9 3.764 12.667 9.432 1.713 5.493-.338 11.586-5.064 14.83-.94.646-2.039 1.061-3.191 1.646 1.318 3.873 2.625 7.741 3.949 11.603 12.66 36.921 25.326 73.84 37.983 110.762 5.844 17.049 11.773 34.069 17.479 51.164 4.05 12.132 4.395 24.382-.415 36.404-4.762 11.903-13.954 18.192-26.5 19.787-2.243.285-4.527.342-6.792.343-46.088.019-92.177.057-138.265-.02-9.524-.016-18.118-2.807-24.873-9.942-5.127-5.416-7.79-12.026-8.999-19.258-1.668-9.983-.507-19.685 2.796-29.25 11.096-32.138 22.067-64.32 33.093-96.482 8.265-24.109 16.541-48.213 24.808-72.321.319-.931.593-1.877.916-2.906z"/><path d="M111.764 255.731c-22.99 0-45.98.009-68.97-.005-7.322-.005-14.051-1.82-19.519-6.965-5.151-4.847-7.569-11.069-8.547-17.925-1.215-8.523.227-16.69 3.017-24.777 12.498-36.219 24.877-72.479 37.298-108.724 7.098-20.711 14.196-41.421 21.28-62.137.284-.83.506-1.7.608-2.569.393-3.341-1.013-5.395-4.237-6.303-4.145-1.168-6.037-5.198-4.103-8.823 1.008-1.889 2.628-2.945 4.761-3.184.439-.049.885-.034 1.328-.034 24.763-.001 49.525.01 74.288-.019 2.467-.003 4.473.762 5.818 2.853 2.199 3.416.492 7.847-3.456 9.114-4.319 1.386-5.725 4.033-4.27 8.392 2.504 7.499 5.095 14.969 7.66 22.447 10.723 31.274 21.454 62.545 32.175 93.82 6.705 19.56 13.445 39.109 20.068 58.697 2.677 7.916 3.179 16.05 1.344 24.229-3.162 14.099-12.963 21.902-27.408 21.912-23.045.016-46.09.004-69.136.004" fill="#fff"/><path d="M111.628 247.251c-22.992 0-45.983.021-68.974-.034-2.19-.005-4.429-.275-6.559-.78-6.905-1.638-10.614-6.469-12.253-13.046-2.044-8.197-1.021-16.182 1.747-24.098 5.798-16.581 11.449-33.214 17.099-49.847.465-1.37 1.053-1.898 2.545-1.896 44.376.039 88.753.037 133.129.008 1.353-.001 2.039.357 2.505 1.731 5.946 17.522 12.038 34.995 17.926 52.536 2.671 7.955 2.972 16.066.139 24.088-2.354 6.669-7.223 10.263-14.203 11.031-1.644.181-3.305.293-4.958.294-22.715.019-45.429.013-68.144.013M157.022 127.602c.001 11.247-8.879 20.086-20.134 20.041-11.244-.044-20.008-8.892-20.004-20.192.005-11.085 8.926-19.964 20.071-19.974 11.22-.01 20.066 8.861 20.067 20.125" fill="#C226A2"/><path d="M134.963 84.857c.001 11.247-8.879 20.086-20.134 20.041-11.244-.044-20.008-8.892-20.004-20.192.005-11.085 8.926-19.964 20.071-19.974 11.22-.011 20.066 8.861 20.067 20.125" fill="#73035C"/><path d="M81.659 130.351c-9.572-.048-17.012-7.657-16.949-17.333.06-9.137 7.695-16.582 17.018-16.596 9.645-.015 17.044 7.564 16.999 17.412-.04 9.085-7.77 16.564-17.069 16.517M133.268 87.977c-9.556-.048-16.985-7.645-16.921-17.305.06-9.123 7.682-16.556 16.991-16.57 9.63-.015 17.016 7.551 16.972 17.384-.04 9.07-7.757 16.537-17.042 16.491" fill="#C226A2"/><path d="M94.826 43.068c.004-5.213 4.051-9.331 9.19-9.353 5.213-.023 9.38 4.149 9.368 9.38-.012 5.24-4.183 9.393-9.395 9.353-5.14-.039-9.168-4.162-9.163-9.38M156.675 139.306c.017-5.094 4.097-9.169 9.193-9.185 5.119-.016 9.354 4.214 9.304 9.292-.05 5.133-4.232 9.209-9.408 9.17-5.066-.038-9.107-4.162-9.09-9.276M86.788 144.359c-.012-4.711 3.73-8.452 8.433-8.431 4.695.02 8.475 3.785 8.478 8.444.003 4.613-3.842 8.443-8.493 8.461-4.665.018-8.407-3.749-8.418-8.473" fill="#73035C"/></g></svg>